<?xml version="1.0" standalone="no"?>
<!DOCTYPE svg PUBLIC "-//W3C//DTD SVG 20010904//EN"
 "http://www.w3.org/TR/2001/REC-SVG-20010904/DTD/svg10.dtd">
<svg version="1.0" xmlns="http://www.w3.org/2000/svg"
 width="640.000000pt" height="640.000000pt" viewBox="0 0 640.000000 640.000000"
 preserveAspectRatio="xMidYMid meet">
<metadata>
Created by potrace 1.14, written by Peter Selinger 2001-2017
</metadata>
<g transform="translate(0.000000,640.000000) scale(0.100000,-0.100000)"
fill="#000000" stroke="none">
<path d="M0 3200 l0 -3200 3200 0 3200 0 0 3139 c0 1726 -3 3166 -6 3200 l-7
61 -3193 0 -3194 0 0 -3200z m3528 2689 c579 -64 1138 -327 1562 -736 445
-429 721 -975 806 -1593 24 -171 24 -519 0 -690 -83 -606 -337 -1122 -766
-1551 -262 -262 -514 -436 -832 -573 -780 -337 -1675 -289 -2402 127 -744 427
-1233 1160 -1342 2012 -22 174 -22 487 0 660 108 829 569 1542 1281 1975 361
220 804 356 1250 384 85 5 341 -3 443 -15z"/>
<path d="M3055 5594 c-16 -2 -73 -9 -125 -15 -229 -26 -498 -104 -715 -208
-210 -100 -373 -208 -554 -366 -100 -86 -285 -284 -276 -293 3 -4 29 19 58 51
129 141 355 306 561 409 220 110 432 178 676 214 157 24 453 24 614 0 848
-124 1536 -721 1781 -1545 130 -439 108 -956 -61 -1389 -269 -692 -873 -1202
-1594 -1346 -712 -142 -1429 68 -1952 574 -46 44 -84 80 -86 80 -12 0 61 -83
168 -190 380 -379 832 -604 1375 -682 136 -19 493 -17 635 5 681 105 1261 475
1641 1046 344 517 466 1162 338 1783 -53 260 -191 588 -341 813 -237 356 -551
632 -933 820 -227 112 -456 183 -706 220 -100 15 -442 28 -504 19z"/>
<path d="M2622 5139 c-367 -28 -729 -169 -1021 -397 -95 -74 -224 -192 -217
-199 2 -3 35 21 72 52 453 385 1108 505 1690 310 109 -36 287 -121 383 -182
140 -89 322 -254 434 -393 165 -206 290 -476 349 -757 20 -94 23 -137 23 -338
0 -201 -3 -244 -23 -338 -140 -664 -611 -1176 -1252 -1360 -134 -39 -263 -58
-425 -64 -419 -15 -828 119 -1146 375 -48 38 -93 73 -100 77 -29 16 69 -80
156 -153 576 -486 1397 -586 2068 -251 183 92 339 202 485 343 282 272 465
606 549 1001 25 121 27 146 27 370 0 223 -2 249 -27 368 -67 316 -194 586
-387 826 -280 347 -675 589 -1105 676 -105 21 -352 48 -410 44 -11 -1 -66 -5
-123 -10z"/>
<path d="M2277 4749 c-296 -24 -556 -125 -810 -311 -37 -28 -66 -53 -63 -55 3
-3 45 20 95 52 350 222 820 273 1219 134 481 -169 829 -569 939 -1080 26 -119
26 -429 0 -549 -81 -380 -296 -704 -601 -908 -173 -116 -324 -180 -530 -224
-147 -31 -408 -32 -558 0 -195 41 -362 110 -517 216 -45 31 -81 52 -81 47 0
-5 35 -35 78 -68 203 -157 405 -251 656 -305 148 -32 456 -32 602 0 676 147
1158 678 1235 1362 49 433 -118 905 -434 1228 -323 331 -772 499 -1230 461z"/>
<path d="M1990 4454 c-98 -13 -210 -38 -288 -65 -91 -32 -282 -127 -282 -140
0 -4 33 8 73 26 336 155 754 133 1078 -55 323 -189 532 -523 569 -906 9 -97 2
-254 -16 -331 -100 -447 -425 -787 -861 -899 -132 -34 -339 -43 -469 -20 -121
21 -241 59 -339 108 -57 29 -75 35 -62 21 27 -31 221 -128 322 -162 126 -42
247 -61 390 -61 579 0 1063 379 1212 949 35 134 43 358 18 498 -45 252 -154
468 -327 650 -183 191 -400 313 -647 363 -101 20 -298 33 -371 24z"/>
</g>
</svg>
