<?xml version="1.0" encoding="utf-8"?>
<!-- Generator: Adobe Illustrator 21.0.0, SVG Export Plug-In . SVG Version: 6.00 Build 0)  -->
<svg version="1.1" id="Layer_1" xmlns="http://www.w3.org/2000/svg" xmlns:xlink="http://www.w3.org/1999/xlink" x="0px" y="0px"
	 width="2800px" height="2000px" viewBox="0 0 2800 2000" style="enable-background:new 0 0 2800 2000;" xml:space="preserve">
<style type="text/css">
	.st0{fill:#A8BBD8;}
	.st1{fill:#5E82A8;}
	.st2{fill:#6B93C4;}
	.st3{fill:#B2C5D8;}
	.st4{fill:#9DB3D3;}
	.st5{fill:#8AA6CE;}
	.st6{fill:#BACADF;}
	.st7{fill:#DAE3EE;}
	.st8{fill:#94AFD1;}
	.st9{fill:#3E79AB;}
	.st10{fill:#4A3C51;}
	.st11{fill:#65546C;}
	.st12{fill:#965740;}
	.st13{fill:#A86947;}
	.st14{fill:#454354;}
	.st15{fill:#725E55;}
	.st16{fill:#89746B;}
	.st17{fill:#604B44;}
	.st18{fill:#6D5952;}
	.st19{fill:#676767;}
	.st20{fill:#828181;}
	.st21{fill:#4D4B4B;}
	.st22{fill:#EB9B53;}
	.st23{fill:#DDDAD3;}
	.st24{fill:#D9D3C3;}
	.st25{fill:#EFEDE6;}
	.st26{fill:#E2BB5A;}
	.st27{fill:#76936C;}
	.st28{fill:#92A988;}
	.st29{fill:#5A7551;}
	.st30{fill:#B9CCB0;}
	.st31{fill:#F8B067;}
	.st32{fill:#BF6752;}
	.st33{fill:#CE8848;}
	.st34{fill:#796C80;}
	.st35{fill:#8B8191;}
	.st36{fill:#FEDABE;}
	.st37{fill:#896387;}
	.st38{fill:#BC6F8E;}
	.st39{fill:#E86089;}
	.st40{fill:#BC8269;}
	.st41{fill:#F4DE7E;}
	.st42{fill:#F8F2E7;}
</style>
<rect class="st0" width="2800" height="2000"/>
<g>
	<rect x="2021.61938" y="651.84399" class="st1" width="388.75305" height="405.24182"/>
	<g>
		<g>
			<rect x="2366.93823" y="989.23285" class="st2" width="199.52469" height="67.85297"/>
			<rect x="2366.93823" y="921.94293" class="st3" width="199.52469" height="67.85297"/>
			<rect x="2366.93823" y="854.41815" class="st4" width="199.52469" height="67.85297"/>
			<rect x="2366.93823" y="786.89343" class="st5" width="199.52469" height="67.85297"/>
			<rect x="2512.81592" y="786.89343" class="st2" width="53.64707" height="67.85297"/>
			<rect x="2366.93823" y="719.36871" class="st3" width="199.52469" height="67.85297"/>
			<rect x="2366.93823" y="651.84399" class="st5" width="199.52469" height="67.85297"/>
			<rect x="2366.93823" y="651.84399" class="st4" width="37.11269" height="67.85297"/>
		</g>
		<g>
			<rect x="1865.52893" y="989.23285" class="st2" width="199.52469" height="67.85297"/>
			<rect x="1865.52893" y="921.94293" class="st3" width="199.52469" height="67.85297"/>
			<rect x="1865.52893" y="854.41815" class="st4" width="199.52469" height="67.85297"/>
			<rect x="1865.52893" y="786.89343" class="st3" width="199.52469" height="67.85297"/>
			<rect x="1865.52893" y="719.36871" class="st5" width="199.52469" height="67.85297"/>
			<rect x="1865.52893" y="651.84399" class="st3" width="199.52469" height="67.85297"/>
		</g>
	</g>
	<path class="st6" d="M2477.104,977.55402c-3.81616-32.13892-19.9856-62.65387-44.43555-83.85919
		c-18.25293-15.83032-40.41357-26.28522-61.28809-38.45129c-20.87451-12.16614-41.36084-26.94556-52.97046-48.13452
		c-11.60986-21.18896-11.96582-50.15039,4.84033-67.50879c-22.71069,6.44305-45.38159,14.76093-63.96997,29.31281
		s-32.74609,36.23627-33.50977,59.83081c-0.30396,9.39844,1.44531,19.11224-1.5542,28.02435
		c-3.64941,10.84381-14.70874,18.73383-26.1499,18.65631c-11.44141-0.07751-22.39258-8.11664-25.89502-19.00891
		c-2.30737-7.17633-1.56787-14.93671-2.50098-22.41693c-3.81958-30.62695-40.88354-51.97467-69.29199-39.91034
		c20.83545,23.28137,13.86108,61.026-3.83057,86.77783c-24.36646,35.46814-67.25293,58.59595-81.57202,100.85114
		c-45.10938,133.11487,332.6687,81.12024,390.1814,74.3844c19.60132-2.29565,40.64111-5.23169,55.06201-18.70483
		C2475.94189,1022.70734,2479.64111,998.92102,2477.104,977.55402z"/>
	<path class="st7" d="M2357.66675,895.66663c64.18579,46.771,55.95313,115.81805,30.18799,162.52893
		c7.26099-0.8772,13.12964-1.60522,17.30249-2.09399c19.60132-2.29565,40.64111-5.23169,55.06201-18.70483
		c15.72266-14.68939,19.42188-38.47571,16.88477-59.84271c-3.81616-32.13892-19.9856-62.65387-44.43555-83.85919
		c-18.25293-15.83032-40.41357-26.28522-61.28809-38.45129c-20.87451-12.16614-41.36084-26.94556-52.97046-48.13452
		c-11.60986-21.18896-11.96582-50.15039,4.84033-67.50879C2291,771,2271.66675,833,2357.66675,895.66663z"/>
	<g>
		<path class="st5" d="M2582.59302,1074.34814c-10.81519-24.69946-34.34424-42.56287-62.31909-45.2915
			c0.87085-2.77881,1.34131-5.73438,1.34131-8.80048c0-16.23517-13.16089-29.39618-29.396-29.39618
			c-5.59375,0-10.82227,1.56299-15.27344,4.27527c-10.58667-15.10315-28.11206-24.98657-47.95605-24.98657
			c-6.84912,0-13.41846,1.18744-19.52734,3.34882c-6.63232-19.83911-25.34937-34.14417-47.41968-34.14417
			c-24.81958,0-45.4043,18.08655-49.32104,41.79596c-3.26318-0.15784-6.56104-0.24054-9.89038-0.24054
			c-7.48511,0-14.81519,0.40674-21.9353,1.18555c-19.32983-26.65259-62.85986-45.23737-113.46924-45.23737
			c-43.47876,0-81.72949,13.71857-103.90381,34.48328c-4.24316-0.73309-8.59912-1.1369-13.05151-1.1369
			c-37.52136,0-68.6842,27.1355-74.99072,62.84772c-26.27527,4.646-48.85583,19.96021-63.13733,41.29712H2582.59302z"/>
		<g>
			<g>
				<g>
					<path class="st7" d="M1980.60547,1042.03723c6.30652-35.7121,37.46936-62.8476,74.99072-62.8476
						c4.45239,0,8.80835,0.40375,13.05151,1.13684c22.17432-20.76465,60.42505-34.4834,103.90381-34.4834
						c50.60938,0,94.1394,18.58496,113.46924,45.23755c7.12012-0.77899,14.4502-1.18561,21.9353-1.18561
						c3.32935,0,6.6272,0.08258,9.89038,0.24054c3.91675-23.70941,24.50146-41.7959,49.32104-41.7959
						c16.75562,0,31.57275,8.24982,40.64233,20.90228c-7.74243-17.59491-25.31055-29.88861-45.76709-29.88861
						c-24.81958,0-45.4043,18.08655-49.32104,41.79596c-3.26318-0.15784-6.56104-0.24054-9.89038-0.24054
						c-7.48511,0-14.81519,0.40674-21.9353,1.18555c-19.32983-26.65259-62.85986-45.23737-113.46924-45.23737
						c-43.47876,0-81.72949,13.71857-103.90381,34.48328c-4.24316-0.73309-8.59912-1.1369-13.05151-1.1369
						c-37.52136,0-68.6842,27.1355-74.99072,62.84772c-26.27527,4.646-48.85583,19.96021-63.13733,41.29712h11.96631
						C1938.48828,1057.74365,1958.19238,1046.00037,1980.60547,1042.03723z"/>
				</g>
				<g>
					<path class="st7" d="M2414.58716,982.48383c6.10889-2.16138,12.67822-3.34882,19.52734-3.34882
						c19.84399,0,37.36938,9.88324,47.95605,24.98651c4.45117-2.71228,9.67969-4.27527,15.27319-4.27527
						c9.07642,0,17.18945,4.11548,22.58154,10.57959c-4.04492-11.39954-14.91943-19.56586-27.70605-19.56586
						c-5.59375,0-10.82227,1.56299-15.27344,4.27527c-10.58667-15.10315-28.11206-24.98657-47.95605-24.98657
						c-6.51221,0-12.76636,1.08441-18.61719,3.04797C2412.07568,976.11823,2413.49756,979.22437,2414.58716,982.48383z"/>
				</g>
			</g>
		</g>
	</g>
	<g>
		<g>
			<rect x="1784.28455" y="1293.00403" class="st5" width="59.98959" height="484.34814"/>
			<rect x="1760.04651" y="1258.55334" class="st2" width="108.4658" height="108.4658"/>
			<rect x="2587.71777" y="1293.00403" class="st5" width="59.98959" height="484.34814"/>
			<rect x="2563.47949" y="1258.55334" class="st2" width="108.4658" height="108.4658"/>
		</g>
		<rect x="1729.69214" y="1057.08582" class="st5" width="972.60748" height="120.05942"/>
		<rect x="1729.69214" y="1057.08582" class="st7" width="972.60748" height="17.26234"/>
		<rect x="1687.51331" y="1177.14526" class="st2" width="1056.96509" height="92.78262"/>
	</g>
	<g>
		<path class="st4" d="M2390.25,980.16315v-6.64246c0-8.56689-6.94482-15.51178-15.51172-15.51178h-23.26782
			c-8.56689,0-15.51172-6.94482-15.51172-15.51172l0,0c0-8.56689-6.94482-15.51172-15.51172-15.51172h-121.87793
			c-8.56689,0-15.51172,6.94482-15.51172,15.51172l0,0c0,8.56689-6.94482,15.51172-15.51172,15.51172h-78.66675
			c-8.56689,0-15.51172,6.94489-15.51172,15.51178v6.64246c0,8.56689-6.94482,15.51178-15.51172,15.51178h-41.54944
			c-8.56689,0-15.51172,6.94482-15.51172,15.51172v45.89917h462.02844v-45.89917c0-8.56689-6.94482-15.51172-15.51172-15.51172
			h-41.54932C2397.19482,995.67493,2390.25,988.73004,2390.25,980.16315z"/>
		<g>
			<g>
				<g>
					<path class="st7" d="M2088.87915,965.35278h78.6665c8.56714,0,15.51172-6.42999,15.51172-14.362
						s6.94482-14.362,15.51172-14.362h121.87793c8.56689,0,15.51172,6.42999,15.51172,14.362s6.94507,14.362,15.51172,14.362
						h23.26782c8.56689,0,15.51172,6.42999,15.51172,14.362v-6.19415c0-8.56683-6.94482-15.51172-15.51172-15.51172h-23.26782
						c-8.56665,0-15.51172-6.94489-15.51172-15.51172s-6.94482-15.51172-15.51172-15.51172h-121.87793
						c-8.56689,0-15.51172,6.94489-15.51172,15.51172s-6.94458,15.51172-15.51172,15.51172h-78.6665
						c-8.56714,0-15.51221,6.94489-15.51221,15.51172v6.19415C2073.36694,971.78278,2080.31201,965.35278,2088.87915,965.35278z"/>
				</g>
				<g>
					<path class="st6" d="M2016.30603,1000.22681h41.54944c8.56689,0,15.51147-6.42999,15.51147-14.36188v-5.70172
						c0,8.56689-6.94458,15.51178-15.51147,15.51178h-41.54944c-8.56689,0-15.51172,6.9447-15.51172,15.51172v3.40204
						C2000.79431,1006.65692,2007.73914,1000.22681,2016.30603,1000.22681z"/>
				</g>
				<g>
					<path class="st7" d="M2447.31079,995.67499h-41.54907c-8.56665,0-15.51172-6.94489-15.51172-15.51178v5.70172
						c0,7.93188,6.94507,14.36188,15.51172,14.36188h41.54907c8.56714,0,15.51221,6.43011,15.51221,14.36194v-3.40204
						C2462.823,1002.61969,2455.87793,995.67499,2447.31079,995.67499z"/>
				</g>
			</g>
		</g>
		<path class="st7" d="M2427.67749,1043.59741c-3.96509-8.78552-12.78271-14.91089-23.04761-14.91089
			s-19.08252,6.12537-23.0481,14.91089H2427.67749z"/>
		<path class="st6" d="M2113.76904,1031.54919c-3.00293-6.65381-9.68115-11.29297-17.45532-11.29297
			c-7.77441,0-14.45264,4.63916-17.45581,11.29297H2113.76904z"/>
		<path class="st7" d="M2256.65869,975.7691c-3.00317-6.65387-9.68115-11.29297-17.45557-11.29297
			s-14.45239,4.6391-17.45581,11.29297H2256.65869z"/>
		<path class="st6" d="M2370.45166,1000.64905c-3.00293-6.65387-9.68115-11.29297-17.45532-11.29297
			c-7.77441,0-14.45264,4.6391-17.45581,11.29297H2370.45166z"/>
		<path class="st5" d="M2309.02563,1024.32703c-3.00317-6.65387-9.68115-11.29297-17.45557-11.29297
			s-14.45239,4.6391-17.45581,11.29297H2309.02563z"/>
		<path class="st5" d="M2196.14404,1046.38049c-3.00317-6.65381-9.68115-11.29297-17.45557-11.29297
			s-14.45239,4.63916-17.45581,11.29297H2196.14404z"/>
	</g>
	<path class="st5" d="M2325.95923,440.83939V166.24831h-219.927v274.59106h-3.11401l-210.52173,104.84586
		c-16.46204,8.19849-26.86768,25.00562-26.86768,43.39618v62.76251h700.93408v-62.58856
		c0-18.48102-10.50732-35.35449-27.09277-43.50757L2325.95923,440.83939z"/>
	<path class="st3" d="M1915.96338,545.68518l210.52197-104.84579h3.11353V166.24831h-23.56665v274.59106h-3.11377
		l-210.52185,104.84579c-16.46191,8.19849-26.86768,25.00568-26.86768,43.39624v62.76251h23.56677v-62.76251
		C1889.0957,570.69086,1899.50146,553.88367,1915.96338,545.68518z"/>
	<path class="st2" d="M2539.37036,545.7478l-213.41089-104.90842V166.24831h-46.53784v274.59106l213.41113,104.90842
		c16.58521,8.15302,27.09253,25.02649,27.09253,43.50757v62.58856h46.53784v-62.58856
		C2566.46313,570.77429,2555.95557,553.90082,2539.37036,545.7478z"/>
	<path class="st3" d="M2206.46143,459.9082c5.26563,0,9.53442-4.26868,9.53442-9.53442c0-5.26572-4.2688-9.53439-9.53442-9.53439
		h-100.4292h-3.11426l-38.28833,19.06882H2206.46143z"/>
	<path class="st3" d="M2103.06616,572.88879c5.26563,0,9.53442-4.26868,9.53442-9.53442c0-5.26569-4.2688-9.53436-9.53442-9.53436
		h-222.30298c-5.60535,5.28625-9.87036,11.82556-12.43896,19.06879H2103.06616z"/>
	<path class="st7" d="M2225.9978,844.33496c0-0.00092,0-0.00183-0.00024-0.00275c-0.04541,4.23981-0.42944,8.41956-1.78125,12.43597
		c-3.64941,10.84381-14.70874,18.73383-26.1499,18.65631c-11.44141-0.07751-22.39258-8.11664-25.89502-19.00891
		c-2.30737-7.17633-1.56787-14.93671-2.50098-22.41693c-3.81958-30.62695-40.88354-51.97467-69.29199-39.91034
		c19.28833,2.245,70.52319,27.09167,54.95483,75.245C2141,913.66669,2229.66211,936.66998,2225.9978,844.33496z"/>
	<path class="st7" d="M2112.64844,900.34399c2.8103,5.53674,4.76489,11.61938,4.77173,17.82843
		c0.00659,6.20898-2.08252,12.55774-6.44873,16.97229s-11.13916,6.58728-17.06641,4.73785
		c-5.92725-1.84949-10.41479-8.06042-9.56421-14.21094c0.62598-4.52692,3.76563-8.28918,7.12402-11.38873
		c3.35815-3.09949,7.11768-5.87482,9.66113-9.67157c1.70117-2.53918,2.75-5.48267,3.12817-8.51013
		c0.31445-2.52051-0.75879-5.68347,0.49805-7.88892C2108.07056,890.89001,2110.69189,896.48883,2112.64844,900.34399z"/>
</g>
<ellipse class="st7" cx="1400" cy="1783" rx="1122.29309" ry="98"/>
<g>
	<path class="st5" d="M1787.35803,297.16043h149.64978c7.58679,0,13.73694,6.15027,13.73694,13.737v26.06625
		c0,7.58673-6.15015,13.737-13.73694,13.737h-149.64978c-7.58679,0-13.73706-6.15027-13.73706-13.737v-26.06625
		C1773.62097,303.3107,1779.77124,297.16043,1787.35803,297.16043z"/>
	<path class="st8" d="M1595.7439,297.16043h149.64978c7.58667,0,13.73694,6.15027,13.73694,13.737v26.06625
		c0,7.58673-6.15027,13.737-13.73694,13.737H1595.7439c-7.58679,0-13.73706-6.15027-13.73706-13.737v-26.06625
		C1582.00684,303.3107,1588.1571,297.16043,1595.7439,297.16043z"/>
	<path class="st4" d="M1883.16516,369.19543h149.64966c7.58679,0,13.73706,6.1503,13.73706,13.737v26.06625
		c0,7.58673-6.15027,13.737-13.73706,13.737h-149.64966c-7.58679,0-13.73706-6.15027-13.73706-13.737v-26.06625
		C1869.4281,375.34573,1875.57837,369.19543,1883.16516,369.19543z"/>
	<path class="st6" d="M1691.5509,369.19543h149.64978c7.58679,0,13.73706,6.1503,13.73706,13.737v26.06625
		c0,7.58673-6.15027,13.737-13.73706,13.737H1691.5509c-7.58667,0-13.73694-6.15027-13.73694-13.737v-26.06625
		C1677.81396,375.34573,1683.96423,369.19543,1691.5509,369.19543z"/>
	<path class="st4" d="M1883.16516,219.5415h149.64966c7.58679,0,13.73706,6.15028,13.73706,13.73701v26.06624
		c0,7.58673-6.15027,13.737-13.73706,13.737h-149.64966c-7.58679,0-13.73706-6.15027-13.73706-13.737v-26.06624
		C1869.4281,225.69179,1875.57837,219.5415,1883.16516,219.5415z"/>
</g>
<g>
	<path class="st5" d="M1113.91699,1105.41345h149.64978c7.58679,0,13.73706,6.15027,13.73706,13.73706v26.06616
		c0,7.58679-6.15027,13.73706-13.73706,13.73706h-149.64978c-7.58667,0-13.73694-6.15027-13.73694-13.73706v-26.06616
		C1100.18005,1111.56372,1106.33032,1105.41345,1113.91699,1105.41345z"/>
	<path class="st8" d="M922.30286,1105.41345h149.64978c7.58679,0,13.73694,6.15027,13.73694,13.73706v26.06616
		c0,7.58679-6.15015,13.73706-13.73694,13.73706H922.30286c-7.58673,0-13.737-6.15027-13.737-13.73706v-26.06616
		C908.56586,1111.56372,914.71613,1105.41345,922.30286,1105.41345z"/>
	<path class="st4" d="M1209.72412,1177.44849h149.64978c7.58667,0,13.73694,6.15027,13.73694,13.73694v26.06628
		c0,7.58679-6.15027,13.73706-13.73694,13.73706h-149.64978c-7.58679,0-13.73706-6.15027-13.73706-13.73706v-26.06628
		C1195.98706,1183.59875,1202.13733,1177.44849,1209.72412,1177.44849z"/>
	<path class="st6" d="M1018.10992,1177.44849h149.64972c7.58679,0,13.73706,6.15027,13.73706,13.73694v26.06628
		c0,7.58679-6.15027,13.73706-13.73706,13.73706h-149.64972c-7.58673,0-13.737-6.15027-13.737-13.73706v-26.06628
		C1004.37292,1183.59875,1010.52319,1177.44849,1018.10992,1177.44849z"/>
	<path class="st4" d="M1209.72412,1027.79456h149.64978c7.58667,0,13.73694,6.15027,13.73694,13.73694v26.06628
		c0,7.58679-6.15027,13.73706-13.73694,13.73706h-149.64978c-7.58679,0-13.73706-6.15027-13.73706-13.73706v-26.06628
		C1195.98706,1033.94482,1202.13733,1027.79456,1209.72412,1027.79456z"/>
</g>
<g>
	<path class="st4" d="M48.21899,1242.69409h149.64978c7.58676,0,13.737,6.15027,13.737,13.73694v26.06628
		c0,7.58667-6.15024,13.73694-13.737,13.73694H48.21899c-7.58673,0-13.73701-6.15027-13.73701-13.73694v-26.06628
		C34.48198,1248.84436,40.63226,1242.69409,48.21899,1242.69409z"/>
	<path class="st4" d="M48.21899,1093.04016h149.64978c7.58676,0,13.737,6.15027,13.737,13.73694v26.06628
		c0,7.58667-6.15024,13.73694-13.737,13.73694H48.21899c-7.58673,0-13.73701-6.15027-13.73701-13.73694v-26.06628
		C34.48198,1099.19043,40.63226,1093.04016,48.21899,1093.04016z"/>
	<path class="st5" d="M102.06165,1170.65894H2v53.54028h100.06165c7.58679,0,13.73706-6.15015,13.73706-13.73694V1184.396
		C115.79871,1176.80933,109.64844,1170.65894,102.06165,1170.65894z"/>
</g>
<g>
	<path class="st2" d="M645.52625,1091h-330.9086c-7.72217,0-13.6969,6.76807-12.73907,14.43054l5.33383,42.67078
		c1.20676,9.65405,9.41339,16.89868,19.14255,16.89868h307.43399c9.72913,0,17.93579-7.24463,19.14252-16.89868l5.33386-42.67078
		C659.22314,1097.76807,653.24841,1091,645.52625,1091z"/>
	<path class="st9" d="M642.03717,1152.802H318.10669c-3.86414,0-7.49896-1.08655-10.59814-2.98303
		C309.41696,1158.60156,317.2124,1165,326.35495,1165h307.43393c9.14264,0,16.93799-6.39844,18.84644-15.18103
		C649.53613,1151.71545,645.90131,1152.802,642.03717,1152.802z"/>
	<path class="st5" d="M645.52625,1091h-26.51666c7.72211,0,13.69684,6.76819,12.73907,14.43054l-5.33386,42.67078
		C625.20807,1157.75537,617.0014,1165,607.27228,1165h26.5166c9.72925,0,17.93585-7.24463,19.14258-16.89868l5.33386-42.67078
		C659.22314,1097.76819,653.24841,1091,645.52625,1091z"/>
</g>
<g>
	<g>
		<g>
			<g>
				<rect x="697.6217" y="1243.31921" class="st6" width="74.99625" height="524.55743"/>
			</g>
			<g>
				<rect x="269.29929" y="1243.31921" class="st6" width="74.99625" height="524.55743"/>
			</g>
		</g>
	</g>
	<path class="st5" d="M814.34686,1263.72217H227.57034c-7.23543,0-13.10091-5.86548-13.10091-13.10095V1178.047
		c0-7.23535,5.86548-13.10083,13.10091-13.10083h586.77649c7.23541,0,13.10095,5.86548,13.10095,13.10083v72.57422
		C827.44781,1257.85669,821.58228,1263.72217,814.34686,1263.72217z M827.44781,1519.64844v-45.30713
		c0-7.23535-5.86554-13.10083-13.10095-13.10083H227.57034c-7.23543,0-13.10091,5.86548-13.10091,13.10083v45.30713
		c0,7.23547,5.86548,13.10095,13.10091,13.10095h586.77649C821.58228,1532.74939,827.44781,1526.88391,827.44781,1519.64844z"/>
</g>
<ellipse class="st0" cx="584.60333" cy="1777" rx="235" ry="30.06413"/>
<ellipse class="st0" cx="1320.35803" cy="1819.1405" rx="305.7515" ry="36.5879"/>
<ellipse class="st0" cx="2210.50586" cy="1777.35217" rx="559.39764" ry="46.51255"/>
<ellipse class="st0" cx="2009.79492" cy="1828.20032" rx="263.94641" ry="32.38017"/>
<g>
	<g>
		<path class="st10" d="M465.76758,1774.75586c-6.16992,0-11.64551-4.41016-12.77881-10.69531
			c-1.27344-7.06641,3.42188-13.82715,10.48779-15.10059c20.70264-3.73145,32.05615-11.90625,33.74512-24.2959
			c2.76172-20.26465-18.0293-47.67969-37.08496-56.86719c-18.60303-8.96973-47.354-48.7207-66.51904-114.80176
			c-16.17334-55.7666-30.62891-149.16211-7.64893-277.40527c1.26611-7.06738,8.02393-11.77734,15.08936-10.50293
			c7.06738,1.26563,11.76953,8.02148,10.50342,15.08887c-22.09375,123.29492-8.37354,212.47559,7.02734,265.57715
			c18.81787,64.88477,45.31641,94.99707,52.83984,98.62402c27.9502,13.47559,55.99707,51.20508,51.55469,83.79785
			c-1.90332,13.9668-11.56641,38.5625-54.89453,46.37305C467.30908,1774.68848,466.5332,1774.75586,465.76758,1774.75586z"/>
		<path class="st11" d="M431.69189,1774.75586c-0.76611,0-1.54102-0.06738-2.32129-0.20801
			c-43.32813-7.81055-52.99121-32.40625-54.89453-46.37305c-4.44238-32.59277,23.60449-70.32227,51.55469-83.79785
			c7.52344-3.62695,34.02197-33.73926,52.83984-98.62402c15.40088-53.10156,29.12109-142.28223,7.02734-265.57715
			c-1.26611-7.06738,3.43604-13.82324,10.50342-15.08887c7.06543-1.27441,13.82227,3.43555,15.08936,10.50293
			c22.97998,128.24316,8.52441,221.63867-7.64893,277.40527c-19.16504,66.08105-47.91602,105.83203-66.51904,114.80176
			c-19.05566,9.1875-39.84668,36.60254-37.08496,56.86719c1.68896,12.38965,13.04248,20.56445,33.74512,24.2959
			c7.06592,1.27344,11.76123,8.03418,10.48779,15.10059C443.3374,1770.3457,437.86133,1774.75586,431.69189,1774.75586z"/>
	</g>
	<g>
		<circle class="st10" cx="448.72964" cy="1646.75342" r="30.99994"/>
		<circle class="st11" cx="448.72964" cy="1646.75342" r="17.6666"/>
	</g>
</g>
<g>
	<path class="st12" d="M681.84698,1694.51025h-53.46954v-540.8385c0-7.64063,6.19397-13.83472,13.83466-13.83472h25.80017
		c7.64075,0,13.83472,6.19409,13.83472,13.83472V1694.51025z"/>
	<path class="st13" d="M668.01227,1139.83716h-14.25464c7.64069,0,13.83472,6.19397,13.83472,13.83459v540.8385h14.25464v-540.8385
		C681.84698,1146.03113,675.65302,1139.83716,668.01227,1139.83716z"/>
	<g>
		<path class="st10" d="M520.95862,1687.24573v77.32837c0,6.11401,4.95636,11.07043,11.07031,11.07043H778.1955
			c6.11395,0,11.07031-4.95642,11.07031-11.07043v-77.32837c0-6.11401-4.95636-11.07043-11.07031-11.07043H532.02893
			C525.91498,1676.17529,520.95862,1681.13171,520.95862,1687.24573z"/>
		<polygon class="st11" points="789.26581,1695.94165 720.76678,1695.94165 696.7193,1666.33777 613.50507,1666.33777 
			589.45752,1695.94165 520.95862,1695.94165 520.95862,1755.14954 589.45752,1755.14954 613.50507,1784.75342 696.7193,1784.75342 
			720.76678,1755.14954 789.26581,1755.14954 		"/>
	</g>
</g>
<g>
	<path class="st8" d="M414.14474,780.07782H264.495c-7.58679,0-13.73701,6.15027-13.73701,13.737v26.06628
		c0,7.58667,6.15022,13.737,13.73701,13.737h149.64975c7.58673,0,13.737-6.15033,13.737-13.737v-26.06628
		C427.88174,786.22809,421.73148,780.07782,414.14474,780.07782z"/>
	<path class="st5" d="M605.75891,780.07782H456.10913c-7.58676,0-13.737,6.15027-13.737,13.737v26.06628
		c0,7.58667,6.15024,13.737,13.737,13.737h149.64978c7.58673,0,13.737-6.15033,13.737-13.737v-26.06628
		C619.49591,786.22809,613.34564,780.07782,605.75891,780.07782z"/>
	<path class="st8" d="M797.37305,780.07782H647.72327c-7.58673,0-13.737,6.15027-13.737,13.737v26.06628
		c0,7.58667,6.15027,13.737,13.737,13.737h149.64978c7.58673,0,13.737-6.15033,13.737-13.737v-26.06628
		C811.11005,786.22809,804.95978,780.07782,797.37305,780.07782z"/>
	<path class="st4" d="M509.95181,852.11285H360.30206c-7.58676,0-13.737,6.15027-13.737,13.737v26.06622
		c0,7.58673,6.15024,13.737,13.737,13.737h149.64975c7.58676,0,13.73703-6.15027,13.73703-13.737v-26.06622
		C523.68884,858.26312,517.53857,852.11285,509.95181,852.11285z"/>
	<path class="st6" d="M701.56598,852.11285H551.9162c-7.58673,0-13.737,6.15027-13.737,13.737v26.06622
		c0,7.58673,6.15027,13.737,13.737,13.737h149.64978c7.58673,0,13.737-6.15027,13.737-13.737v-26.06622
		C715.30298,858.26312,709.15271,852.11285,701.56598,852.11285z"/>
</g>
<path class="st2" d="M862.97021,313.12476H178.94691c-7.91852,0-14.33771,6.41925-14.33771,14.33771v66.0481
	c0,7.91852,6.41919,14.33771,14.33771,14.33771h684.02332c7.91858,0,14.33777-6.41919,14.33777-14.33771v-66.0481
	C877.30798,319.54401,870.88879,313.12476,862.97021,313.12476z"/>
<path class="st8" d="M223.91455,459.6665c-33.52881,0-60.80615-25.71973-60.80615-57.33301
	c0-31.61377,27.27734-57.3335,60.80615-57.3335s60.80664,25.71973,60.80664,57.3335
	C284.72119,433.94678,257.44336,459.6665,223.91455,459.6665z M223.91455,361c-24.70605,0-44.80615,18.54199-44.80615,41.3335
	c0,22.79102,20.1001,41.33301,44.80615,41.33301c24.70654,0,44.80664-18.54199,44.80664-41.33301
	C268.72119,379.54199,248.62109,361,223.91455,361z"/>
<path class="st5" d="M223.91455,540.29004c-19.63574,0-37.87354-10.9917-51.354-30.9502
	c-12.83008-18.99561-19.896-44.10254-19.896-70.69482s7.06592-51.69922,19.896-70.69482
	C186.04102,347.9917,204.27881,337,223.91455,337s37.87354,10.9917,51.354,30.9502
	c12.83008,18.99561,19.896,44.10254,19.896,70.69482s-7.06592,51.69922-19.896,70.69482
	C261.78809,529.29834,243.55029,540.29004,223.91455,540.29004z M223.91455,353c-14.15381,0-27.68311,8.48975-38.09521,23.90576
	c-11.0625,16.37842-17.15479,38.30469-17.15479,61.73926s6.09229,45.36084,17.15479,61.73926
	c10.41211,15.41602,23.94141,23.90576,38.09521,23.90576s27.68311-8.48975,38.09521-23.90576
	c11.0625-16.37842,17.15479-38.30469,17.15479-61.73926s-6.09229-45.36084-17.15479-61.73926
	C251.59766,361.48975,238.06836,353,223.91455,353z"/>
<path class="st5" d="M160.66455,594.6665c-4.41846,0-8-3.58154-8-8V418.25c0-4.41846,3.58154-8,8-8s8,3.58154,8,8v168.4165
	C168.66455,591.08496,165.08301,594.6665,160.66455,594.6665z"/>
<path class="st6" d="M223.91455,489.5c-39.2876,0-71.25-31.9624-71.25-71.25s31.9624-71.25,71.25-71.25s71.25,31.9624,71.25,71.25
	S263.20215,489.5,223.91455,489.5z M223.91455,363c-30.46484,0-55.25,24.78516-55.25,55.25s24.78516,55.25,55.25,55.25
	s55.25-24.78516,55.25-55.25S254.37939,363,223.91455,363z"/>
<g>
	<path class="st9" d="M223.9585,388c-6.62744,0-12-5.37256-12-12v-67.5c0-6.62744,5.37256-12,12-12s12,5.37256,12,12V376
		C235.9585,382.62744,230.58594,388,223.9585,388z"/>
	<path class="st9" d="M421.9585,388c-6.62744,0-12-5.37256-12-12v-67.5c0-6.62744,5.37256-12,12-12s12,5.37256,12,12V376
		C433.9585,382.62744,428.58594,388,421.9585,388z"/>
	<path class="st9" d="M619.9585,388c-6.62744,0-12-5.37256-12-12v-67.5c0-6.62744,5.37256-12,12-12s12,5.37256,12,12V376
		C631.9585,382.62744,626.58594,388,619.9585,388z"/>
	<path class="st9" d="M817.9585,388c-6.62744,0-12-5.37256-12-12v-67.5c0-6.62744,5.37256-12,12-12s12,5.37256,12,12V376
		C829.9585,382.62744,824.58594,388,817.9585,388z"/>
</g>
<path class="st6" d="M286.93262,554.6665c-4.41846,0-8-3.58154-8-8V423.6499c0-4.41846,3.58154-8,8-8s8,3.58154,8,8v123.0166
	C294.93262,551.08496,291.35107,554.6665,286.93262,554.6665z"/>
<g>
	<path class="st5" d="M2251.62427,1708.77075c-4.75562,14.20569-10.05591,28.2157-15.90942,42.0033
		c-10.08179,23.79468-21.78052,46.90442-35.10474,69.11572h-381.63025c-13.32434-22.2113-25.02295-45.32104-35.10486-69.11572
		c-5.85364-13.7876-11.15393-27.79761-15.90942-42.0033c-41.73669-124.52429-41.73669-263.35193,0-387.8761
		c4.75549-14.20569,10.05579-28.2157,15.90942-42.0033c10.08191-23.79468,21.78052-46.90442,35.10486-69.11584h381.63025
		c13.32422,22.21143,25.02295,45.32117,35.10474,69.11584c5.85352,13.7876,11.15381,27.79761,15.90942,42.0033
		C2293.36963,1445.41882,2293.36963,1584.24646,2251.62427,1708.77075z"/>
	<path class="st5" d="M2251.62427,1708.77075c-4.75562,14.20569-10.05591,28.2157-15.90942,42.0033
		c-10.08179,23.79468-21.78052,46.90442-35.10474,69.11572h-381.63025c-13.32434-22.2113-25.02295-45.32104-35.10486-69.11572
		c-5.85364-13.7876-11.15393-27.79761-15.90942-42.0033c-41.73669-124.52429-41.73669-263.35193,0-387.8761
		c4.75549-14.20569,10.05579-28.2157,15.90942-42.0033c10.08191-23.79468,21.78052-46.90442,35.10486-69.11584h381.63025
		c13.32422,22.21143,25.02295,45.32117,35.10474,69.11584c5.85352,13.7876,11.15381,27.79761,15.90942,42.0033
		C2293.36963,1445.41882,2293.36963,1584.24646,2251.62427,1708.77075z"/>
	<path class="st6" d="M2251.62427,1320.89465c-4.75562-14.20569-10.05591-28.2157-15.90942-42.0033
		c-10.08179-23.79468-21.78052-46.90442-35.10474-69.11584h-12.91919c12.95313,22.21143,24.32617,45.32117,34.1272,69.11584
		c5.69067,13.7876,10.84326,27.79761,15.46655,42.0033c40.58276,124.52417,40.58276,263.35181,0,387.8761
		c-4.62329,14.20569-9.77588,28.2157-15.46655,42.0033c-9.80103,23.79468-21.17407,46.90442-34.1272,69.11572h12.91919
		c13.32422-22.2113,25.02295-45.32104,35.10474-69.11572c5.85352-13.7876,11.15381-27.79761,15.90942-42.0033
		C2293.36963,1584.24646,2293.36963,1445.41882,2251.62427,1320.89465z"/>
	<path class="st4" d="M2193.0647,1708.77075c-3.604,14.20569-7.62085,28.2157-12.05688,42.0033
		c-7.64038,23.79468-16.50635,46.90442-26.604,69.11572h-289.21619c-10.09766-22.2113-18.9635-45.32104-26.604-69.11572
		c-4.43604-13.7876-8.45288-27.79761-12.05688-42.0033c-31.62988-124.52429-31.62988-263.35193,0-387.8761
		c3.604-14.20569,7.62085-28.2157,12.05688-42.0033c7.6405-23.79468,16.50635-46.90442,26.604-69.11584h289.21619
		c10.09766,22.21143,18.96362,45.32117,26.604,69.11584c4.43604,13.7876,8.45288,27.79761,12.05688,42.0033
		C2224.70093,1445.41882,2224.70093,1584.24646,2193.0647,1708.77075z"/>
	<path class="st5" d="M2132.20752,1708.77075c-2.40723,14.20569-5.09009,28.2157-8.05322,42.0033
		c-5.10327,23.79468-11.0249,46.90442-17.76953,69.11572h-193.17651c-6.74463-22.2113-12.66626-45.32104-17.76965-69.11572
		c-2.96301-13.7876-5.64587-27.79761-8.0531-42.0033c-21.12659-124.52429-21.12659-263.35193,0-387.8761
		c2.40723-14.20569,5.09009-28.2157,8.0531-42.0033c5.10339-23.79468,11.02502-46.90442,17.76965-69.11584h193.17651
		c6.74463,22.21143,12.66626,45.32117,17.76953,69.11584c2.96313,13.7876,5.646,27.79761,8.05322,42.0033
		C2153.33838,1445.41882,2153.33838,1584.24646,2132.20752,1708.77075z"/>
	<path class="st4" d="M2058.71973,1708.77075c-0.96191,14.20569-2.03418,28.2157-3.21851,42.0033
		c-2.03955,23.79468-4.40625,46.90442-7.10156,69.11572h-77.20422c-2.69556-22.2113-5.06213-45.32104-7.10168-69.11572
		c-1.1842-13.7876-2.25647-27.79761-3.21851-42.0033c-8.44336-124.52429-8.44336-263.35193,0-387.8761
		c0.96204-14.20569,2.0343-28.2157,3.21851-42.0033c2.03955-23.79468,4.40613-46.90442,7.10168-69.11584h77.20422
		c2.69531,22.21143,5.06201,45.32117,7.10156,69.11584c1.18433,13.7876,2.25659,27.79761,3.21851,42.0033
		C2067.16479,1445.41882,2067.16479,1584.24646,2058.71973,1708.77075z"/>
	<path class="st2" d="M2235.71484,1278.89136H1783.875c-5.85364,13.7876-11.15393,27.79761-15.90942,42.0033h483.65869
		C2246.86865,1306.68896,2241.56836,1292.67896,2235.71484,1278.89136z M1767.96558,1708.77075
		c4.75549,14.20569,10.05579,28.2157,15.90942,42.0033h451.83984c5.85352-13.7876,11.15381-27.79761,15.90942-42.0033H1767.96558z"
		/>
	<g>
		<g>
			<g>
				<path class="st5" d="M2237.28467,1320.89465h14.3396c-4.75562-14.20569-10.05591-28.2157-15.90942-42.0033h-13.89673
					C2227.50879,1292.67896,2232.66138,1306.68896,2237.28467,1320.89465z"/>
			</g>
			<g>
				<path class="st5" d="M2221.81812,1750.77405h13.89673c5.85352-13.7876,11.15381-27.79761,15.90942-42.0033h-14.3396
					C2232.66138,1722.97644,2227.50879,1736.98645,2221.81812,1750.77405z"/>
			</g>
		</g>
	</g>
</g>
<g>
	<rect x="1434.14343" y="1118.11096" class="st14" width="114.68181" height="602.22241"/>
	<rect x="1251.1748" y="1118.11096" class="st14" width="114.68181" height="602.22241"/>
	<g>
		<path class="st15" d="M1307.32715,1680.75171h0.00012c40.99976,0,74.23657,33.23682,74.23657,74.23657v2.14795h-148.47327
			v-2.14795C1233.09058,1713.98853,1266.32739,1680.75171,1307.32715,1680.75171z"/>
		<path class="st16" d="M1307.32727,1680.75171h-0.00012c-2.10498,0-4.18347,0.10913-6.24426,0.28101
			c31.59631,2.94006,56.33276,29.51685,56.33276,61.88135v14.22217h24.14819v-2.14807
			C1381.56384,1713.98853,1348.32703,1680.75171,1307.32727,1680.75171z"/>
		<path class="st17" d="M1374.9231,1740.67737h-132.81482c-8.33545,0-15.09253,6.75708-15.09253,15.09253v28.97778
			c0,8.33545,6.75708,15.09265,15.09253,15.09265h132.81482c8.33545,0,15.09265-6.7572,15.09265-15.09265v-28.97778
			C1390.01575,1747.43445,1383.25854,1740.67737,1374.9231,1740.67737z"/>
		<path class="st18" d="M1374.9231,1740.67737h-20.52588c8.33533,0,15.09253,6.75708,15.09253,15.09253v28.97778
			c0,8.33545-6.7572,15.09265-15.09253,15.09265h20.52588c8.33545,0,15.09265-6.7572,15.09265-15.09265v-28.97778
			C1390.01575,1747.43445,1383.25854,1740.67737,1374.9231,1740.67737z"/>
	</g>
	<g>
		<path class="st15" d="M1490.29578,1680.75171h0.00012c40.99976,0,74.23657,33.23682,74.23657,74.23657v2.14795H1416.0592v-2.14795
			C1416.0592,1713.98853,1449.29602,1680.75171,1490.29578,1680.75171z"/>
		<path class="st16" d="M1490.2959,1680.75171h-0.00012c-2.10498,0-4.18347,0.10913-6.24426,0.28101
			c31.59631,2.94006,56.33276,29.51685,56.33276,61.88135v14.22217h24.14819v-2.14807
			C1564.53247,1713.98853,1531.29565,1680.75171,1490.2959,1680.75171z"/>
		<path class="st17" d="M1557.89172,1740.67737H1425.0769c-8.33545,0-15.09265,6.75708-15.09265,15.09253v28.97778
			c0,8.33545,6.7572,15.09265,15.09265,15.09265h132.81482c8.33545,0,15.09253-6.7572,15.09253-15.09265v-28.97778
			C1572.98425,1747.43445,1566.22717,1740.67737,1557.89172,1740.67737z"/>
		<path class="st18" d="M1557.89172,1740.67737h-20.52588c8.33533,0,15.09253,6.75708,15.09253,15.09253v28.97778
			c0,8.33545-6.7572,15.09265-15.09253,15.09265h20.52588c8.33545,0,15.09253-6.7572,15.09253-15.09265v-28.97778
			C1572.98425,1747.43445,1566.22717,1740.67737,1557.89172,1740.67737z"/>
	</g>
</g>
<g>
	<polygon class="st19" points="1117.06885,373.06009 1095.82971,350.44937 1019.51752,345.46826 995.51941,365.12625 
		987.1922,492.7023 1008.43127,515.31305 1084.74353,520.29419 1108.74158,500.63614 	"/>
	<polygon class="st20" points="1118.39502,352.74307 1097.15588,330.13235 1020.84363,325.15128 996.84552,344.80923 
		994.99738,373.12341 1016.23651,395.73419 1092.54871,400.7153 1116.54688,381.05725 	"/>
	<polygon class="st21" points="1108.74158,500.63614 1116.54688,381.05725 1092.54871,400.7153 1084.74353,520.29419 	"/>
	<polygon class="st21" points="987.1922,492.7023 994.99738,373.12341 1016.23651,395.73419 1008.43127,515.31305 	"/>
</g>
<path class="st22" d="M1062.63184,594.08789c-3.24268,0-6.53809-0.64746-9.7041-2.01563
	c-12.42139-5.36572-18.14063-19.78564-12.77441-32.20703l26.69775-61.79883c5.36572-12.4209,19.78369-18.14355,32.20703-12.77441
	c12.42139,5.36572,18.14063,19.78564,12.7749,32.20703l-26.69824,61.79883
	C1081.13672,588.55322,1072.11133,594.08789,1062.63184,594.08789z"/>
<path class="st13" d="M1040.17383,571.47119c-1.00684,0-2.02344-0.0542-3.04736-0.16504
	c-15.37402-1.66406-26.48828-15.47607-24.82422-30.85059l9.3501-86.38428c1.66406-15.37402,15.46387-26.49072,30.85059-24.82422
	c15.37402,1.66406,26.48828,15.47607,24.82422,30.85059l-9.3501,86.38428
	C1066.42383,560.83252,1054.28662,571.47119,1040.17383,571.47119z"/>
<path class="st23" d="M1074.62256,909.19775c-16.19971,0-32.34473-6.51904-44.17578-19.38184
	c-22.43311-24.38916-20.84766-62.3457,3.5415-84.77881c7.47998-6.88037,15.01318-13.771,22.56689-20.68018
	c64.45068-58.95166,131.0957-119.91016,173.58301-183.95557c18.31934-27.61377,55.5542-35.14893,83.16699-16.83008
	c27.61377,18.31885,35.14844,55.55371,16.83008,83.16699c-50.62793,76.31641-122.79639,142.32715-192.58887,206.16504
	c-7.47119,6.8335-14.92236,13.64941-22.3208,20.4541C1103.69922,903.95898,1089.13867,909.19775,1074.62256,909.19775z"/>
<ellipse transform="matrix(0.99677 -0.08025 0.08025 0.99677 -63.70927 89.0505)" class="st24" cx="1075.9928" cy="837.11096" rx="92.00963" ry="92.00963"/>
<path class="st10" d="M1662.90527,1069.17676c-6.43262,0-12.44336-4.03516-14.65527-10.45898
	c-2.78613-8.09375,1.5166-16.91406,9.61133-19.70117c40.61914-13.9834,59.68848-25.15332,68.5332-32.06152
	c6.74414-5.27051,16.4873-4.07422,21.75586,2.67383c5.26953,6.74609,4.07324,16.48633-2.67383,21.75586
	c-15.57617,12.16797-41.65918,24.59668-77.52539,36.94434C1666.28027,1068.9043,1664.57813,1069.17676,1662.90527,1069.17676z"/>
<path class="st23" d="M1665.5957,866.00537c-27.04297,0-51.59082-18.4082-58.25586-45.85303
	c-11.23242-46.24561-44.22559-84.46484-121.73535-141.0166c-26.76953-19.53076-32.63672-57.06494-13.10645-83.83447
	c19.53125-26.76904,57.06641-32.63721,83.83496-13.10596c85.13477,62.11475,146.21973,121.53564,167.61621,209.63574
	c7.82129,32.20117-11.94336,64.64502-44.14453,72.46582C1675.04883,865.45215,1670.2832,866.00537,1665.5957,866.00537z"/>
<path class="st25" d="M1723.94922,791.83105c-21.39648-88.1001-82.48145-147.521-167.61621-209.63574
	c-14.42627-10.52588-31.97693-13.66229-48.15393-10.13831c11.74841,0.3078,23.52698,4.05084,33.73889,11.50183
	c85.13477,62.11475,146.21973,121.53564,167.61621,209.63574c7.82129,32.20117-11.94336,64.64502-44.14453,72.46582
	c-0.48779,0.11853-0.97583,0.20361-1.46375,0.30951c0.55603,0.01563,1.11145,0.03546,1.6698,0.03546
	c4.6875,0,9.45313-0.55322,14.20898-1.7085C1712.00586,856.47607,1731.77051,824.03223,1723.94922,791.83105z"/>
<path class="st25" d="M1209.59583,687.87646v286.66571c0,105.15717,85.24683,190.40399,190.40393,190.40399h0.00049
	c105.1571,0,190.40393-85.24683,190.40393-190.40399V687.87646c0-80.12799-64.95667-145.08459-145.08459-145.08459h-90.63916
	C1274.55249,542.79187,1209.59583,607.74847,1209.59583,687.87646z"/>
<g>
	<g>
		<polygon class="st26" points="1550.28613,874.11084 1477.48535,874.11084 1487.77051,817.50781 1499.57715,819.65332 
			1491.8623,862.11084 1535.90918,862.11084 1528.19434,819.65332 1540.00098,817.50781 		"/>
		<path class="st26" d="M1513.88574,835.58057c-17.27734,0-31.33301-14.05615-31.33301-31.3335s14.05566-31.3335,31.33301-31.3335
			s31.33301,14.05615,31.33301,31.3335S1531.16309,835.58057,1513.88574,835.58057z M1513.88574,784.91357
			c-10.66016,0-19.33301,8.67285-19.33301,19.3335s8.67285,19.3335,19.33301,19.3335s19.33301-8.67285,19.33301-19.3335
			S1524.5459,784.91357,1513.88574,784.91357z"/>
		<path class="st27" d="M1513.88574,818.58032h-0.00012c-8.65234,0-15.66663-7.01422-15.66663-15.66663V562.9585
			c0-8.6524,7.01428-15.66663,15.66663-15.66663h0.00012c8.65247,0,15.66663,7.01422,15.66663,15.66663v239.9552
			C1529.55237,811.5661,1522.53821,818.58032,1513.88574,818.58032z"/>
	</g>
	<g>
		<polygon class="st26" points="1322.51514,874.11084 1249.71387,874.11084 1259.99902,817.50781 1271.80566,819.65332 
			1264.09082,862.11084 1308.13818,862.11084 1300.42334,819.65332 1312.22998,817.50781 		"/>
		<path class="st26" d="M1286.11426,835.58057c-17.27734,0-31.3335-14.05615-31.3335-31.3335s14.05615-31.3335,31.3335-31.3335
			s31.3335,14.05615,31.3335,31.3335S1303.3916,835.58057,1286.11426,835.58057z M1286.11426,784.91357
			c-10.66064,0-19.3335,8.67285-19.3335,19.3335s8.67285,19.3335,19.3335,19.3335s19.3335-8.67285,19.3335-19.3335
			S1296.7749,784.91357,1286.11426,784.91357z"/>
		<path class="st27" d="M1286.11438,818.58032h-0.00012c-8.65247,0-15.66663-7.01422-15.66663-15.66663V562.9585
			c0-8.6524,7.01416-15.66663,15.66663-15.66663h0.00012c8.65234,0,15.66663,7.01422,15.66663,15.66663v239.9552
			C1301.78101,811.5661,1294.76672,818.58032,1286.11438,818.58032z"/>
	</g>
</g>
<rect x="1209.59583" y="862.11096" class="st27" width="380.80829" height="592"/>
<rect x="1573.18457" y="862.11096" class="st28" width="17.21956" height="592"/>
<path class="st29" d="M1590.40405,887.35687l-4.05042-22.64941l-376.75769,22.86725v85.75641
	c4.68152,4.04437,10.745,6.56567,17.45801,6.71417l347.625,7.6897c5.85059,0.12939,11.24536-1.55212,15.7251-4.48309V887.35687z"/>
<path class="st28" d="M1209.59583,862.11096l-9.85828,61.38794c-2.55579,15.91498,8.97559,30.63831,25.03931,31.9704
	l346.52063,28.73584c17.42444,1.44495,31.80652-13.42859,29.77686-30.79474l-10.67017-91.29944H1209.59583z"/>
<path class="st30" d="M1601.07434,953.4104l-10.67029-91.2995h-13.08496l10.52258,90.03577
	c2.02966,17.36609-12.35242,32.23969-29.77686,30.79474l-336.30188-27.88843c0.98486,0.19061,1.98975,0.33142,3.01392,0.41632
	l346.52063,28.73584C1588.72192,985.65009,1603.104,970.77649,1601.07434,953.4104z"/>
<path class="st24" d="M1461.849,588.04163L1400,617.49353l-61.849-29.4519l-28.5105,107.25397
	c-3.0896,11.62286,7.34106,22.33728,19.0426,19.56061l23.77295-5.64105L1400,768.11902l47.54395-58.90387l23.77295,5.64105
	c11.70154,2.77667,22.1322-7.93774,19.0426-19.56061L1461.849,588.04163z"/>
<polygon class="st31" points="1400,768.11902 1325.95984,596.45654 1474.04016,596.45654 "/>
<g>
	<path class="st32" d="M1368.60815,141.95853h62.78369c88.79688,0,160.78088,71.98409,160.78088,160.78098v117.29022h-384.34546
		V302.7395C1207.82727,213.94261,1279.81128,141.95853,1368.60815,141.95853z"/>
	<path class="st32" d="M1422.30676,649.95856h-44.61353c-20.07654,0-36.35168-16.27527-36.35168-36.35175v-38.83026h117.31689
		v38.83026C1458.65845,633.68329,1442.3833,649.95856,1422.30676,649.95856z"/>
	<path class="st32" d="M1484.83789,612.36755h-169.67578c-19.04993,0-34.49292-15.44299-34.49292-34.49286v-62.58282h238.66162
		v62.58282C1519.33081,596.92456,1503.88782,612.36755,1484.83789,612.36755z"/>
	<g>
		<g>
			<path class="st31" d="M1597.41296,465.87888h-71.646v-73.8407h71.646c20.39063,0,36.92041,16.52979,36.92041,36.92032v0.00006
				C1634.33337,449.34909,1617.80359,465.87888,1597.41296,465.87888z"/>
			<path class="st33" d="M1546.53479,446.26495v-29.9978h49.72437c8.27014,0,14.9989,6.72821,14.9989,14.9989
				s-6.72876,14.9989-14.9989,14.9989H1546.53479z"/>
		</g>
		<g>
			<path class="st31" d="M1202.58704,465.87888h71.646v-73.8407h-71.646c-20.39063,0-36.92041,16.52979-36.92041,36.92032v0.00006
				C1165.66663,449.34909,1182.19641,465.87888,1202.58704,465.87888z"/>
			<path class="st33" d="M1253.46521,446.26495v-29.9978h-49.72437c-8.27014,0-14.9989,6.72821-14.9989,14.9989
				s6.72876,14.9989,14.9989,14.9989H1253.46521z"/>
		</g>
	</g>
	<path class="st32" d="M1247.40271,350.95139h305.19458c21.85693,0,39.57544,17.71854,39.57544,39.57547v63.10684
		c0,62.22336-50.44189,112.66531-112.66528,112.66531h-159.01489c-62.22339,0-112.66528-50.44196-112.66528-112.66531v-63.10684
		C1207.82727,368.66992,1225.54578,350.95139,1247.40271,350.95139z"/>
	<path class="st31" d="M1481.28711,526.54321h-162.57422c-42.08679,0-76.20496-34.11819-76.20496-76.20508V324.05496
		c0-86.98041,70.51147-157.49196,157.49194-157.49196h0.00024c86.98047,0,157.49194,70.51155,157.49194,157.49196v126.28317
		C1557.49207,492.42502,1523.3739,526.54321,1481.28711,526.54321z"/>
	<path class="st32" d="M1503,547.29199h-44v-34.3335c0-26.83496-21.83203-48.6665-48.66699-48.6665h-20.6665
		c-26.83496,0-48.6665,21.83154-48.6665,48.6665v34.3335h-44v-34.3335c0-51.09668,41.56982-92.6665,92.6665-92.6665h20.6665
		c51.09668,0,92.66699,41.56982,92.66699,92.6665V547.29199z"/>
	<path class="st32" d="M1250.66663,305.29187h-17V182.95853h100v39.33333
		C1333.66663,268.1315,1296.50635,305.29187,1250.66663,305.29187z"/>
	<path class="st32" d="M1310.5,185.45853c14.5,45.5,53,103,117.5,123c-7.5-21-6-45-6-45s24,19.5,70.5,37.5s56,38.5,58.5,57
		c9.5-12.5,19.24426-66.5,19.24426-66.5s-33.24426-69.5-35.24426-71s-66-56-66-56s-73.5-12.5-78-11.5s-53.66663,11.5-57.33337,11
		C1330,163.45853,1310.5,185.45853,1310.5,185.45853z"/>
	<path class="st32" d="M1548.5,287.10098c0,0-211.5-84.50002-218.5-83.00002s-100.24426,108.52422-100.24426,108.52422
		s-21.92847,20.66669-57.42236,22c12-11.5,12.16663-44.5242,19.66663-67.0242c-23.5,2.5-43.5-20.83334-43.5-20.83334
		s39-9.66667,52.5-39.66667c27.51123-61.13615,89.5-76,114-64.5c0,0,37.24426-29.49999,125.37219-18.49999
		C1528.5,135.10097,1567.5,212.60097,1614.5,194.60097c-8.5,35-27.85596,54.5-27.85596,54.5S1600,307.10098,1623,309.60098
		c-18,23-30,23-30,23s7,17.5,18,20c9,2.5-19.66663,19-31.33337,12.5c-11.66663-6.5-15.16663-44.5-15.16663-44.5L1548.5,287.10098z"
		/>
</g>
<g>
	<path class="st11" d="M1658.52197,1192.62915l-97.677,27.80762v-82.9209h117.2688c6.92969,0,12.54736,5.61768,12.54736,12.54749
		l0,0C1690.66113,1169.83887,1677.54175,1187.21448,1658.52197,1192.62915z"/>
	<path class="st10" d="M1658.52197,1171.78113l-97.677,17.28845v31.36719l97.677-27.8075
		c19.0199-5.41479,32.13904-22.79041,32.13904-42.56592c0-0.74182-0.07678-1.46423-0.20007-2.17065
		C1688.77429,1159.09753,1676.20044,1168.6521,1658.52197,1171.78113z"/>
	<polygon class="st10" points="1569.23022,1218.04956 1593.61536,1211.10742 1593.61536,1137.51587 1569.23022,1137.51587 	"/>
	<path class="st11" d="M1573.18457,1243.79822v-116.14453h-365.3573v15.43274c0,26.18066,12.23535,50.85706,33.07446,66.70483
		l71.5387,54.4043c9.73035,7.39978,15.44336,18.92175,15.44336,31.14612v5.64221c0,11.84937-5.36938,23.06042-14.60193,30.48804
		l-24.37964,19.6134c-11.23267,9.03674-17.7655,22.67676-17.7655,37.09326v35.89294h74.44934h137.9657h74.44922v-36.12952
		c0-14.28149-6.41138-27.80847-17.46594-36.85034l-23.99353-19.625c-9.08618-7.43176-14.35583-18.55005-14.35583-30.28845l0,0
		c0-15.36597,8.99353-29.30969,22.99194-35.64697L1573.18457,1243.79822z"/>
	<rect x="1271.13672" y="1402.77759" class="st10" width="286.86423" height="21.29396"/>
	<path class="st34" d="M1525.17761,1265.53125l48.00696-21.73303v-0.06909h-44.9198v0.06909l-48.00708,21.73303
		c-13.99841,6.33716-22.99194,20.28088-22.99194,35.64697c0,11.7384,5.26978,22.85657,14.35583,30.28845l23.99365,19.62512
		c11.05444,9.04175,17.46582,22.56873,17.46582,36.8501v36.12964h44.91992v-36.12964c0-14.28137-6.41138-27.80835-17.46594-36.8501
		l-23.99353-19.62512c-9.08606-7.43188-14.35583-18.55005-14.35583-30.28845
		C1502.18567,1285.81213,1511.1792,1271.86841,1525.17761,1265.53125z"/>
	<rect x="1207.82727" y="1127.65369" class="st35" width="365.35736" height="9.86218"/>
	<path class="st35" d="M1347.52014,1161.73999h-61.49194c-3.08728,0-5.59009-2.50281-5.59009-5.59021l0,0
		c0-3.08728,2.50281-5.59009,5.59009-5.59009h61.49194c3.08728,0,5.59009,2.50281,5.59009,5.59009l0,0
		C1353.11023,1159.23718,1350.60742,1161.73999,1347.52014,1161.73999z"/>
	<path class="st35" d="M1255.74817,1161.73999h-11.67944c-3.0874,0-5.59021-2.50281-5.59021-5.59021l0,0
		c0-3.08728,2.50281-5.59009,5.59021-5.59009h11.67944c3.0874,0,5.59021,2.50281,5.59021,5.59009l0,0
		C1261.33838,1159.23718,1258.83557,1161.73999,1255.74817,1161.73999z"/>
	<path class="st10" d="M1398.5022,1243.72913h-112.97388l26.91211,20.46631c4.21704,3.20703,7.67603,7.19019,10.24597,11.66724
		h75.8158c8.87329,0,16.06665-7.19336,16.06665-16.06677S1407.37549,1243.72913,1398.5022,1243.72913z"/>
</g>
<ellipse transform="matrix(0.99677 -0.08025 0.08025 0.99677 -58.87394 136.21802)" class="st24" cx="1665.20569" cy="800.53992" rx="92.00963" ry="92.00963"/>
<path class="st25" d="M1756.91846,793.15594c-4.078-50.65161-48.44507-88.40692-99.09668-84.32892
	c-0.46973,0.03784-0.93604,0.08612-1.40356,0.13086c43.50195,4.23199,79.06592,39.10394,82.69653,84.19806
	c4.04016,50.18188-32.98315,94.18835-82.92554,98.96594c5.36133,0.52155,10.8429,0.57831,16.40039,0.13086
	C1723.24121,888.17474,1760.99658,843.80756,1756.91846,793.15594z"/>
<path class="st31" d="M1724.12988,809.86621c-5.36035-30.73926-34.62402-51.31689-65.36719-45.95166
	c-30.74023,5.36133-51.31348,34.62744-45.95215,65.36768c7.18872,41.21301-0.17664,95.61475-23.16492,169.94476
	c-25.28394,10.31305-43.11084,35.12885-43.11084,64.12091c0,38.23853,30.99841,69.23694,69.23694,69.23694
	c36.479,0,66.34705-28.21741,69.02051-64.01282c1.76831-3.12378,3.26941-6.45752,4.44897-9.98999
	C1724.79883,952.09717,1735.55859,875.39014,1724.12988,809.86621z"/>
<path class="st36" d="M1724.12988,809.86621c-5.28613-30.31348-33.81934-50.72626-64.09192-46.14111
	c23.32703,3.56757,42.83179,21.61035,47.1095,46.14111c11.42871,65.52393,0.66895,142.23096-34.88867,248.71582
	c-1.17957,3.53247-2.68066,6.86621-4.44897,9.98999c-2.46252,32.97095-28.00317,59.49316-60.52478,63.47644
	c2.78333,0.34045,5.61145,0.53638,8.48669,0.53638c36.479,0,66.34705-28.21741,69.02051-64.01282
	c1.76831-3.12378,3.26941-6.45752,4.44897-9.98999C1724.79883,952.09717,1735.55859,875.39014,1724.12988,809.86621z"/>
<path class="st31" d="M1544.49023,1112.6416c-4.15723,0-8.36914-1.05859-12.22754-3.28613
	c-11.71777-6.76563-15.7334-21.75-8.96777-33.46777l35.08105-60.76172c6.7666-11.71777,21.75098-15.73096,33.46777-8.96777
	c11.71777,6.76563,15.7334,21.75,8.96777,33.46777l-35.08105,60.76172
	C1561.19238,1108.24707,1552.95703,1112.6416,1544.49023,1112.6416z"/>
<g>
	<path class="st10" d="M1479.4834,1113.01367c-7.47949,0-14.0625-5.42578-15.28613-13.0459
		c-1.35547-8.45215,4.39648-16.4043,12.84863-17.76074c36.24609-5.81543,73.32031-13.34473,107.21484-21.77246
		c8.31348-2.06836,16.71582,2.99512,18.78223,11.30176c2.06543,8.30762-2.99414,16.7168-11.30176,18.78223
		c-34.72754,8.63477-72.69043,16.3457-109.7832,22.29785C1481.12598,1112.94922,1480.29883,1113.01367,1479.4834,1113.01367z"/>
	<path class="st37" d="M1362.03564,1125.99512c-8.18799,0-15.03076-6.41504-15.46533-14.68652
		c-0.44922-8.54883,6.1167-15.84277,14.66504-16.29199c40.16211-2.11035,86.19531-7.54102,133.12305-15.7041
		c8.43066-1.46582,16.45996,4.17969,17.92676,12.61426c1.4668,8.43359-4.18066,16.45996-12.61426,17.92676
		c-48.125,8.37207-95.43262,13.94629-136.80859,16.12012C1362.58545,1125.98828,1362.30908,1125.99512,1362.03564,1125.99512z"/>
	<path class="st38" d="M1362.03564,1125.99512c-8.18799,0-15.03076-6.41504-15.46533-14.68652
		c-0.44922-8.54883,6.1167-15.84277,14.66504-16.29199c24.26953-1.27539,50.56152-3.74121,78.14648-7.33008
		c8.5-1.1084,16.2666,4.88184,17.37012,13.37012c1.10449,8.48926-4.88184,16.26563-13.37012,17.37012
		c-28.37012,3.69141-55.46045,6.23047-80.52002,7.54688C1362.58545,1125.98828,1362.30957,1125.99512,1362.03564,1125.99512z"/>
	<path class="st39" d="M1362.03564,1125.99512c-8.18799,0-15.03076-6.41504-15.46533-14.68652
		c-0.44922-8.54883,6.1167-15.84277,14.66553-16.29199c8.99365-0.47266,18.40576-1.11914,27.97412-1.92188
		c8.52344-0.71191,16.02539,5.61914,16.74121,14.14941s-5.61865,16.02539-14.14941,16.74121
		c-9.88818,0.83008-19.625,1.49902-28.93994,1.98828C1362.58545,1125.98828,1362.30908,1125.99512,1362.03564,1125.99512z"/>
</g>
<path class="st31" d="M1074.55566,905.70947c-25.80273,0-49.09717-17.78516-55.04785-44.00879l-62.27344-274.4209
	c-6.90527-30.43066,12.16553-60.69727,42.5957-67.60254c30.43262-6.90723,60.69727,12.16504,67.60254,42.5957l62.27344,274.4209
	c6.90527,30.43066-12.16553,60.69727-42.5957,67.60254C1082.90332,905.25098,1078.69482,905.70947,1074.55566,905.70947z"/>
<path class="st36" d="M1129.70605,836.69385l-62.27344-274.4209c-6.90527-30.43066-37.16992-49.50293-67.60254-42.5957
	c-8.85785,2.01001-16.74323,6.01001-23.31555,11.40674c3.45532-1.57355,7.12012-2.82306,10.96838-3.69629
	c30.43262-6.90723,60.69727,12.16504,67.60254,42.5957l62.27344,274.4209c4.89526,21.57269-3.27393,43.05249-19.28015,56.1958
	C1121.94678,889.73071,1135.73804,863.27618,1129.70605,836.69385z"/>
<path class="st13" d="M1029.83594,666.979c-1.00635,0-2.02344-0.0542-3.04688-0.16504
	c-15.37451-1.66406-26.48877-15.47607-24.82471-30.8501l2.64258-24.41553c1.66406-15.37402,15.47461-26.48828,30.8501-24.82471
	c15.37451,1.66406,26.48877,15.47607,24.82471,30.85059l-2.64258,24.41504
	C1056.08594,656.33984,1043.94873,666.979,1029.83594,666.979z"/>
<ellipse transform="matrix(0.985 -0.17253 0.17253 0.985 -80.46842 185.61093)" class="st31" cx="1027.50769" cy="555.70654" rx="73.63045" ry="73.63045"/>
<path class="st36" d="M1100.03394,543.00299c-3.81055-21.75519-16.8186-39.57849-34.31689-50.21472
	c11.70361,10.60999,20.10913,25.03491,23.04578,41.80011c7.01599,40.05518-19.76758,78.21387-59.82275,85.22986
	c-18.29993,3.20538-36.19354-0.66107-50.91284-9.60797c16.25854,14.7392,38.8941,22.10199,62.18396,18.02258
	C1080.26636,621.21686,1107.04993,583.05811,1100.03394,543.00299z"/>
<g>
	<path class="st40" d="M1596.85339,1820.74976h-343.70679v-374.24487c0-12.60718,10.22009-22.82739,22.82727-22.82739h298.05225
		c12.60718,0,22.82727,10.22021,22.82727,22.82739V1820.74976z"/>
	<path class="st13" d="M1546.85339,1820.74976h-343.70679v-374.24487c0-12.60718,10.22009-22.82739,22.82727-22.82739h298.05225
		c12.60718,0,22.82727,10.22021,22.82727,22.82739V1820.74976z"/>
	<path class="st12" d="M1255.39404,1649.5c-6.35107,0-11.5-5.14844-11.5-11.5v-125c0-6.35156,5.14893-11.5,11.5-11.5
		s11.5,5.14844,11.5,11.5v125C1266.89404,1644.35156,1261.74512,1649.5,1255.39404,1649.5z"/>
	<path class="st12" d="M1442.39355,1587c-6.35156,0-11.5-5.14844-11.5-11.5v-125c0-6.35156,5.14844-11.5,11.5-11.5
		s11.5,5.14844,11.5,11.5v125C1453.89355,1581.85156,1448.74512,1587,1442.39355,1587z"/>
	<path class="st12" d="M1328.25049,1788.5c-6.35107,0-11.5-5.14844-11.5-11.5v-125c0-6.35156,5.14893-11.5,11.5-11.5
		s11.5,5.14844,11.5,11.5v125C1339.75049,1783.35156,1334.60156,1788.5,1328.25049,1788.5z"/>
</g>
<polygon class="st41" points="1424.92126,1017.83276 1408.45667,1013.63281 1419.21033,971.47711 1387.09143,1028.64441 
	1403.55591,1032.84436 1392.80237,1075 "/>
<polygon class="st41" points="1295.90894,1084.29187 1294.5387,1101.22827 1251.1748,1097.71985 1312.93079,1119.76355 
	1314.30103,1102.82715 1357.66492,1106.33545 "/>
<path class="st42" d="M1610.64429,1012.92346c-10.45996,3.89142-20.69263,8.47833-30.58447,13.73865
	c-4.93542,2.64734-9.83081,5.39001-14.58789,8.36401c-4.7804,2.93726-9.46362,6.03906-14.04529,9.29395
	c-3.98303,2.79858-7.8551,5.75745-11.66626,8.80676l0.20557-0.70691c1.77637-6.31665,3.59949-12.61951,5.31311-18.9563
	l3.04468-11.25854l-10.21899,5.14124c-9.38208,4.72009-18.16418,10.45935-26.35181,16.83105
	c-8.18774,6.38098-15.79358,13.39685-22.89209,20.82349c-7.12292,7.40686-13.70837,15.25928-19.94287,23.33508
	c-3.14148,4.01843-6.13806,8.14392-9.07495,12.30237c-2.95142,4.14697-5.77856,8.38037-8.53357,12.6571l10.30969-11.21838
	c3.44568-3.71924,6.94165-7.38257,10.43042-11.03455c7.02563-7.26282,14.25049-14.28638,21.70923-20.97278
	c7.48181-6.6604,15.23511-12.95215,23.36353-18.61633c4.74805-3.31396,9.62903-6.40173,14.63171-9.2312
	c-0.73193,2.375-1.46191,4.75049-2.19873,7.12415l-2.84583,9.45813l-2.81421,9.46741l-6.3335,21.30615l15.55627-15.97803
	c0.8147-0.83655,1.82019-1.81226,2.76709-2.71326c0.96716-0.91626,1.95227-1.82434,2.94495-2.72766
	c1.9939-1.7998,4.03174-3.56775,6.07446-5.33362c4.10767-3.51074,8.35388-6.87695,12.64587-10.19263
	c8.63245-6.56763,17.54529-12.81641,26.77991-18.59802c9.19714-5.84863,18.71716-11.21246,28.43945-16.28351
	c9.73511-5.05627,19.76001-9.59515,29.95325-14.00061C1631.82422,1005.896,1621.1427,1009.13,1610.64429,1012.92346z"/>
<path class="st42" d="M1340.84888,1065.83179c-1.94751-2.56885-3.91382-5.12573-5.89868-7.67065
	c-3.99512-5.06738-8.12524-10.02979-12.32458-14.9397c-4.24695-4.86499-8.57617-9.66382-12.9856-14.39355
	c-4.43811-4.70044-8.95569-9.33191-13.59045-13.84583l-6.91699-6.73676l0.86853,9.80292
	c0.46631,5.26276,0.96753,10.52136,1.4801,15.77869c0.21265,2.26355,0.43848,4.52551,0.66589,6.78723
	c-10.68274-6.92224-21.73352-13.22607-32.99023-19.05231c-13.89441-7.22327-28.11267-13.71429-42.45251-19.82599
	c-14.34998-6.09363-28.8252-11.81738-43.41602-17.21613c-14.56519-5.46222-29.2085-10.69073-43.99097-15.61639
	c13.84595,7.14764,27.89661,13.83636,41.97449,20.41309l42.17224,19.69409c14.01013,6.59662,27.91162,13.35309,41.56995,20.49268
	c13.64001,7.17004,27.02612,14.75488,39.88757,23.11304l7.75488,5.03955l-1.19019-9.0426
	c-0.68933-5.23669-1.36438-10.47485-2.09473-15.70691c-0.27271-2.00598-0.56274-4.00989-0.84021-6.01526
	c2.29016,2.06775,4.57043,4.14771,6.8335,6.2478c4.71924,4.32336,9.37073,8.72681,13.95203,13.20801
	c4.62915,4.43652,9.1748,8.96436,13.69824,13.52625c2.26819,2.27563,4.52173,4.56787,6.76099,6.87695l6.74646,6.91724
	C1344.67871,1071.02075,1342.75806,1068.43335,1340.84888,1065.83179z"/>
</svg>
